<svg xmlns="http://www.w3.org/2000/svg" xmlns:xlink="http://www.w3.org/1999/xlink" width="180" zoomAndPan="magnify" viewBox="0 0 135 37.5" height="50" preserveAspectRatio="xMidYMid meet" version="1.2"><defs/><g id="6c7b235aa2"><g style="fill:#ffffff;fill-opacity:1;"><g transform="translate(7.749952, 18.007946)"><path style="stroke:none" d="M 2.796875 0 L 0.625 0 L 0.625 -0.21875 C 0.84375 -0.21875 1.007812 -0.28125 1.125 -0.40625 C 1.238281 -0.539062 1.296875 -0.75 1.296875 -1.03125 L 1.296875 -8.0625 C 1.296875 -8.3125 1.242188 -8.507812 1.140625 -8.65625 C 1.035156 -8.8125 0.898438 -8.890625 0.734375 -8.890625 L 0.625 -8.890625 L 0.625 -9.09375 L 7.625 -9.09375 C 7.625 -8.875 7.628906 -8.640625 7.640625 -8.390625 C 7.648438 -8.148438 7.660156 -7.921875 7.671875 -7.703125 L 7.484375 -7.703125 L 7.40625 -7.890625 C 7.25 -8.210938 7.007812 -8.460938 6.6875 -8.640625 C 6.363281 -8.828125 6.007812 -8.921875 5.625 -8.921875 L 1.984375 -8.921875 L 1.984375 -5.5 L 4.703125 -5.5 C 5.035156 -5.5 5.320312 -5.546875 5.5625 -5.640625 C 5.8125 -5.742188 5.96875 -5.882812 6.03125 -6.0625 L 6.078125 -6.171875 L 6.25 -6.171875 L 6.25 -4.546875 L 6.078125 -4.546875 L 6.03125 -4.671875 C 5.957031 -4.859375 5.800781 -5.015625 5.5625 -5.140625 C 5.320312 -5.265625 5.035156 -5.328125 4.703125 -5.328125 L 1.984375 -5.328125 L 1.984375 -1.03125 C 1.984375 -0.75 2.054688 -0.539062 2.203125 -0.40625 C 2.347656 -0.28125 2.546875 -0.21875 2.796875 -0.21875 Z M 2.796875 0 "/></g></g><g style="fill:#ffffff;fill-opacity:1;"><g transform="translate(17.285413, 18.007946)"><path style="stroke:none" d="M 2.125 0 L 0.3125 0 L 0.3125 -0.21875 C 0.519531 -0.21875 0.695312 -0.273438 0.84375 -0.390625 C 0.988281 -0.515625 1.117188 -0.707031 1.234375 -0.96875 L 4.578125 -9.109375 L 4.78125 -9.109375 L 8.265625 -1.03125 C 8.367188 -0.769531 8.492188 -0.566406 8.640625 -0.421875 C 8.796875 -0.285156 8.976562 -0.21875 9.1875 -0.21875 L 9.1875 0 L 7.046875 0 L 7.046875 -0.21875 L 7.171875 -0.21875 C 7.328125 -0.21875 7.445312 -0.253906 7.53125 -0.328125 C 7.613281 -0.410156 7.65625 -0.519531 7.65625 -0.65625 C 7.65625 -0.707031 7.648438 -0.757812 7.640625 -0.8125 C 7.628906 -0.875 7.609375 -0.9375 7.578125 -1 C 7.554688 -1.070312 7.519531 -1.160156 7.46875 -1.265625 C 7.414062 -1.378906 7.359375 -1.519531 7.296875 -1.6875 C 6.847656 -1.6875 6.425781 -1.75 6.03125 -1.875 C 5.644531 -2 5.269531 -2.128906 4.90625 -2.265625 C 4.550781 -2.410156 4.203125 -2.539062 3.859375 -2.65625 C 3.523438 -2.78125 3.191406 -2.84375 2.859375 -2.84375 C 2.609375 -2.84375 2.375 -2.804688 2.15625 -2.734375 C 1.988281 -2.328125 1.859375 -2.007812 1.765625 -1.78125 C 1.671875 -1.550781 1.597656 -1.375 1.546875 -1.25 C 1.503906 -1.125 1.472656 -1.03125 1.453125 -0.96875 C 1.441406 -0.90625 1.4375 -0.84375 1.4375 -0.78125 C 1.4375 -0.601562 1.484375 -0.460938 1.578125 -0.359375 C 1.679688 -0.265625 1.816406 -0.21875 1.984375 -0.21875 L 2.125 -0.21875 Z M 4.453125 -8.296875 L 2.25 -2.953125 C 2.4375 -3.003906 2.640625 -3.03125 2.859375 -3.03125 C 3.203125 -3.03125 3.539062 -2.972656 3.875 -2.859375 C 4.21875 -2.742188 4.566406 -2.613281 4.921875 -2.46875 C 5.273438 -2.332031 5.640625 -2.203125 6.015625 -2.078125 C 6.398438 -1.960938 6.800781 -1.894531 7.21875 -1.875 Z M 4.453125 -8.296875 "/></g></g><g style="fill:#ffffff;fill-opacity:1;"><g transform="translate(28.322817, 18.007946)"><path style="stroke:none" d="M 7.671875 -2.609375 C 7.671875 -2.210938 7.597656 -1.851562 7.453125 -1.53125 C 7.304688 -1.207031 7.101562 -0.929688 6.84375 -0.703125 C 6.582031 -0.472656 6.265625 -0.296875 5.890625 -0.171875 C 5.523438 -0.0546875 5.113281 0 4.65625 0 L 0.609375 0 L 0.609375 -0.21875 C 0.828125 -0.21875 0.992188 -0.28125 1.109375 -0.40625 C 1.222656 -0.539062 1.28125 -0.75 1.28125 -1.03125 L 1.28125 -8.0625 C 1.28125 -8.3125 1.226562 -8.507812 1.125 -8.65625 C 1.03125 -8.8125 0.894531 -8.890625 0.71875 -8.890625 L 0.609375 -8.890625 L 0.609375 -9.09375 L 4.3125 -9.09375 C 4.707031 -9.09375 5.066406 -9.046875 5.390625 -8.953125 C 5.722656 -8.867188 6.003906 -8.742188 6.234375 -8.578125 C 6.472656 -8.410156 6.65625 -8.207031 6.78125 -7.96875 C 6.90625 -7.726562 6.96875 -7.460938 6.96875 -7.171875 C 6.96875 -6.628906 6.765625 -6.175781 6.359375 -5.8125 C 5.953125 -5.457031 5.398438 -5.222656 4.703125 -5.109375 C 5.160156 -5.046875 5.570312 -4.941406 5.9375 -4.796875 C 6.300781 -4.660156 6.609375 -4.484375 6.859375 -4.265625 C 7.117188 -4.054688 7.316406 -3.8125 7.453125 -3.53125 C 7.597656 -3.25 7.671875 -2.941406 7.671875 -2.609375 Z M 1.984375 -5.15625 C 2.441406 -5.15625 2.789062 -5.15625 3.03125 -5.15625 C 3.269531 -5.15625 3.445312 -5.15625 3.5625 -5.15625 C 3.6875 -5.164062 3.78125 -5.171875 3.84375 -5.171875 C 3.90625 -5.171875 3.988281 -5.171875 4.09375 -5.171875 C 4.757812 -5.203125 5.285156 -5.394531 5.671875 -5.75 C 6.066406 -6.113281 6.265625 -6.585938 6.265625 -7.171875 C 6.265625 -7.703125 6.085938 -8.125 5.734375 -8.4375 C 5.378906 -8.757812 4.90625 -8.921875 4.3125 -8.921875 L 1.984375 -8.921875 Z M 4.59375 -0.171875 C 4.945312 -0.171875 5.265625 -0.226562 5.546875 -0.34375 C 5.835938 -0.457031 6.082031 -0.617188 6.28125 -0.828125 C 6.488281 -1.046875 6.648438 -1.300781 6.765625 -1.59375 C 6.878906 -1.894531 6.9375 -2.234375 6.9375 -2.609375 C 6.9375 -2.972656 6.859375 -3.300781 6.703125 -3.59375 C 6.546875 -3.894531 6.316406 -4.148438 6.015625 -4.359375 C 5.722656 -4.578125 5.367188 -4.742188 4.953125 -4.859375 C 4.546875 -4.984375 4.085938 -5.046875 3.578125 -5.046875 L 1.984375 -5.046875 L 1.984375 -0.171875 Z M 4.59375 -0.171875 "/></g></g><g style="fill:#ffffff;fill-opacity:1;"><g transform="translate(37.881039, 18.007946)"><path style="stroke:none" d="M 2.65625 0 L 0.609375 0 L 0.609375 -0.21875 C 0.828125 -0.21875 0.992188 -0.28125 1.109375 -0.40625 C 1.234375 -0.539062 1.296875 -0.75 1.296875 -1.03125 L 1.296875 -8.0625 C 1.296875 -8.3125 1.242188 -8.507812 1.140625 -8.65625 C 1.035156 -8.8125 0.898438 -8.890625 0.734375 -8.890625 L 0.609375 -8.890625 L 0.609375 -9.09375 L 2.65625 -9.09375 L 2.65625 -8.890625 C 2.4375 -8.890625 2.269531 -8.820312 2.15625 -8.6875 C 2.039062 -8.5625 1.984375 -8.351562 1.984375 -8.0625 L 1.984375 -1.03125 C 1.984375 -0.78125 2.035156 -0.582031 2.140625 -0.4375 C 2.242188 -0.289062 2.382812 -0.21875 2.5625 -0.21875 L 2.65625 -0.21875 Z M 2.65625 0 "/></g></g><g style="fill:#ffffff;fill-opacity:1;"><g transform="translate(42.66036, 18.007946)"><path style="stroke:none" d="M 9.515625 -4.578125 C 9.515625 -3.960938 9.414062 -3.375 9.21875 -2.8125 C 9.019531 -2.25 8.734375 -1.753906 8.359375 -1.328125 C 7.984375 -0.910156 7.507812 -0.578125 6.9375 -0.328125 C 6.375 -0.0859375 5.722656 0.03125 4.984375 0.03125 C 4.234375 0.03125 3.570312 -0.0859375 3 -0.328125 C 2.4375 -0.578125 1.96875 -0.910156 1.59375 -1.328125 C 1.21875 -1.753906 0.929688 -2.25 0.734375 -2.8125 C 0.535156 -3.375 0.4375 -3.960938 0.4375 -4.578125 C 0.4375 -5.203125 0.535156 -5.789062 0.734375 -6.34375 C 0.929688 -6.90625 1.21875 -7.394531 1.59375 -7.8125 C 1.96875 -8.238281 2.4375 -8.570312 3 -8.8125 C 3.570312 -9.0625 4.234375 -9.1875 4.984375 -9.1875 C 5.722656 -9.1875 6.375 -9.0625 6.9375 -8.8125 C 7.507812 -8.570312 7.984375 -8.238281 8.359375 -7.8125 C 8.734375 -7.394531 9.019531 -6.90625 9.21875 -6.34375 C 9.414062 -5.789062 9.515625 -5.203125 9.515625 -4.578125 Z M 4.984375 -0.140625 C 5.609375 -0.140625 6.148438 -0.257812 6.609375 -0.5 C 7.078125 -0.738281 7.46875 -1.054688 7.78125 -1.453125 C 8.101562 -1.859375 8.34375 -2.332031 8.5 -2.875 C 8.65625 -3.414062 8.734375 -3.984375 8.734375 -4.578125 C 8.734375 -5.179688 8.65625 -5.75 8.5 -6.28125 C 8.34375 -6.820312 8.101562 -7.289062 7.78125 -7.6875 C 7.46875 -8.09375 7.078125 -8.414062 6.609375 -8.65625 C 6.148438 -8.894531 5.609375 -9.015625 4.984375 -9.015625 C 4.359375 -9.015625 3.8125 -8.894531 3.34375 -8.65625 C 2.875 -8.414062 2.476562 -8.09375 2.15625 -7.6875 C 1.84375 -7.289062 1.601562 -6.820312 1.4375 -6.28125 C 1.28125 -5.75 1.203125 -5.179688 1.203125 -4.578125 C 1.203125 -3.984375 1.28125 -3.414062 1.4375 -2.875 C 1.601562 -2.332031 1.84375 -1.859375 2.15625 -1.453125 C 2.476562 -1.054688 2.875 -0.738281 3.34375 -0.5 C 3.8125 -0.257812 4.359375 -0.140625 4.984375 -0.140625 Z M 4.984375 -0.140625 "/></g></g><g style="fill:#ffffff;fill-opacity:1;"><g transform="translate(54.073249, 18.007946)"><path style="stroke:none" d=""/></g></g><g style="fill:#ffffff;fill-opacity:1;"><g transform="translate(59.694564, 18.007946)"><path style="stroke:none" d="M 7.4375 -9.09375 L 9.265625 -9.09375 L 9.265625 -8.890625 C 9.046875 -8.890625 8.863281 -8.828125 8.71875 -8.703125 C 8.582031 -8.578125 8.457031 -8.390625 8.34375 -8.140625 L 5 0 L 4.78125 0 L 1.3125 -8.078125 C 1.195312 -8.335938 1.0625 -8.535156 0.90625 -8.671875 C 0.757812 -8.816406 0.582031 -8.890625 0.375 -8.890625 L 0.375 -9.09375 L 2.53125 -9.09375 L 2.53125 -8.890625 L 2.390625 -8.890625 C 2.234375 -8.890625 2.113281 -8.847656 2.03125 -8.765625 C 1.945312 -8.691406 1.90625 -8.585938 1.90625 -8.453125 C 1.90625 -8.335938 1.9375 -8.207031 2 -8.0625 L 5.125 -0.8125 L 8.015625 -7.890625 C 8.085938 -8.046875 8.125 -8.195312 8.125 -8.34375 C 8.125 -8.507812 8.078125 -8.640625 7.984375 -8.734375 C 7.890625 -8.835938 7.753906 -8.890625 7.578125 -8.890625 L 7.4375 -8.890625 Z M 7.4375 -9.09375 "/></g></g><g style="fill:#ffffff;fill-opacity:1;"><g transform="translate(70.777478, 18.007946)"><path style="stroke:none" d="M 2.125 0 L 0.3125 0 L 0.3125 -0.21875 C 0.519531 -0.21875 0.695312 -0.273438 0.84375 -0.390625 C 0.988281 -0.515625 1.117188 -0.707031 1.234375 -0.96875 L 4.578125 -9.109375 L 4.78125 -9.109375 L 8.265625 -1.03125 C 8.367188 -0.769531 8.492188 -0.566406 8.640625 -0.421875 C 8.796875 -0.285156 8.976562 -0.21875 9.1875 -0.21875 L 9.1875 0 L 7.046875 0 L 7.046875 -0.21875 L 7.171875 -0.21875 C 7.328125 -0.21875 7.445312 -0.253906 7.53125 -0.328125 C 7.613281 -0.410156 7.65625 -0.519531 7.65625 -0.65625 C 7.65625 -0.707031 7.648438 -0.757812 7.640625 -0.8125 C 7.628906 -0.875 7.609375 -0.9375 7.578125 -1 C 7.554688 -1.070312 7.519531 -1.160156 7.46875 -1.265625 C 7.414062 -1.378906 7.359375 -1.519531 7.296875 -1.6875 C 6.847656 -1.6875 6.425781 -1.75 6.03125 -1.875 C 5.644531 -2 5.269531 -2.128906 4.90625 -2.265625 C 4.550781 -2.410156 4.203125 -2.539062 3.859375 -2.65625 C 3.523438 -2.78125 3.191406 -2.84375 2.859375 -2.84375 C 2.609375 -2.84375 2.375 -2.804688 2.15625 -2.734375 C 1.988281 -2.328125 1.859375 -2.007812 1.765625 -1.78125 C 1.671875 -1.550781 1.597656 -1.375 1.546875 -1.25 C 1.503906 -1.125 1.472656 -1.03125 1.453125 -0.96875 C 1.441406 -0.90625 1.4375 -0.84375 1.4375 -0.78125 C 1.4375 -0.601562 1.484375 -0.460938 1.578125 -0.359375 C 1.679688 -0.265625 1.816406 -0.21875 1.984375 -0.21875 L 2.125 -0.21875 Z M 4.453125 -8.296875 L 2.25 -2.953125 C 2.4375 -3.003906 2.640625 -3.03125 2.859375 -3.03125 C 3.203125 -3.03125 3.539062 -2.972656 3.875 -2.859375 C 4.21875 -2.742188 4.566406 -2.613281 4.921875 -2.46875 C 5.273438 -2.332031 5.640625 -2.203125 6.015625 -2.078125 C 6.398438 -1.960938 6.800781 -1.894531 7.21875 -1.875 Z M 4.453125 -8.296875 "/></g></g><g style="fill:#ffffff;fill-opacity:1;"><g transform="translate(81.814883, 18.007946)"><path style="stroke:none" d="M 2.65625 -8.890625 C 2.4375 -8.890625 2.269531 -8.820312 2.15625 -8.6875 C 2.039062 -8.5625 1.984375 -8.351562 1.984375 -8.0625 L 1.984375 -0.171875 L 5.421875 -0.171875 C 5.503906 -0.171875 5.625 -0.179688 5.78125 -0.203125 C 5.9375 -0.234375 6.101562 -0.296875 6.28125 -0.390625 C 6.46875 -0.484375 6.648438 -0.617188 6.828125 -0.796875 C 7.003906 -0.972656 7.15625 -1.21875 7.28125 -1.53125 L 7.390625 -1.5 C 7.421875 -1.488281 7.453125 -1.476562 7.484375 -1.46875 C 7.515625 -1.46875 7.546875 -1.460938 7.578125 -1.453125 C 7.523438 -1.222656 7.476562 -1.007812 7.4375 -0.8125 C 7.394531 -0.644531 7.359375 -0.484375 7.328125 -0.328125 C 7.304688 -0.171875 7.285156 -0.0625 7.265625 0 L 0.609375 0 L 0.609375 -0.203125 C 0.828125 -0.203125 0.992188 -0.269531 1.109375 -0.40625 C 1.222656 -0.539062 1.28125 -0.75 1.28125 -1.03125 L 1.28125 -8.0625 C 1.28125 -8.3125 1.226562 -8.507812 1.125 -8.65625 C 1.03125 -8.8125 0.894531 -8.890625 0.71875 -8.890625 L 0.609375 -8.890625 L 0.609375 -9.09375 L 2.65625 -9.09375 Z M 2.65625 -8.890625 "/></g></g><g style="fill:#ffffff;fill-opacity:1;"><g transform="translate(91.247943, 18.007946)"><path style="stroke:none" d="M 2.65625 -8.890625 C 2.4375 -8.890625 2.269531 -8.820312 2.15625 -8.6875 C 2.039062 -8.5625 1.984375 -8.351562 1.984375 -8.0625 L 1.984375 -0.171875 L 5.421875 -0.171875 C 5.503906 -0.171875 5.625 -0.179688 5.78125 -0.203125 C 5.9375 -0.234375 6.101562 -0.296875 6.28125 -0.390625 C 6.46875 -0.484375 6.648438 -0.617188 6.828125 -0.796875 C 7.003906 -0.972656 7.15625 -1.21875 7.28125 -1.53125 L 7.390625 -1.5 C 7.421875 -1.488281 7.453125 -1.476562 7.484375 -1.46875 C 7.515625 -1.46875 7.546875 -1.460938 7.578125 -1.453125 C 7.523438 -1.222656 7.476562 -1.007812 7.4375 -0.8125 C 7.394531 -0.644531 7.359375 -0.484375 7.328125 -0.328125 C 7.304688 -0.171875 7.285156 -0.0625 7.265625 0 L 0.609375 0 L 0.609375 -0.203125 C 0.828125 -0.203125 0.992188 -0.269531 1.109375 -0.40625 C 1.222656 -0.539062 1.28125 -0.75 1.28125 -1.03125 L 1.28125 -8.0625 C 1.28125 -8.3125 1.226562 -8.507812 1.125 -8.65625 C 1.03125 -8.8125 0.894531 -8.890625 0.71875 -8.890625 L 0.609375 -8.890625 L 0.609375 -9.09375 L 2.65625 -9.09375 Z M 2.65625 -8.890625 "/></g></g><g style="fill:#ffffff;fill-opacity:1;"><g transform="translate(100.681004, 18.007946)"><path style="stroke:none" d="M 7.546875 -1.390625 C 7.472656 -1.003906 7.410156 -0.679688 7.359375 -0.421875 C 7.304688 -0.171875 7.273438 -0.03125 7.265625 0 L 0.609375 0 L 0.609375 -0.21875 C 0.828125 -0.21875 0.992188 -0.28125 1.109375 -0.40625 C 1.222656 -0.539062 1.28125 -0.75 1.28125 -1.03125 L 1.28125 -8.0625 C 1.28125 -8.3125 1.226562 -8.507812 1.125 -8.65625 C 1.019531 -8.8125 0.878906 -8.890625 0.703125 -8.890625 L 0.609375 -8.890625 L 0.609375 -9.09375 L 7.1875 -9.09375 C 7.1875 -8.875 7.191406 -8.640625 7.203125 -8.390625 C 7.222656 -8.148438 7.238281 -7.921875 7.25 -7.703125 L 7.0625 -7.703125 L 6.984375 -7.890625 C 6.828125 -8.210938 6.585938 -8.460938 6.265625 -8.640625 C 5.941406 -8.828125 5.585938 -8.921875 5.203125 -8.921875 L 1.96875 -8.921875 L 1.96875 -5.484375 L 4.8125 -5.484375 C 5.15625 -5.484375 5.445312 -5.535156 5.6875 -5.640625 C 5.925781 -5.742188 6.078125 -5.878906 6.140625 -6.046875 L 6.1875 -6.15625 L 6.375 -6.15625 L 6.375 -4.53125 L 6.1875 -4.53125 L 6.140625 -4.65625 C 6.066406 -4.851562 5.910156 -5.007812 5.671875 -5.125 C 5.429688 -5.25 5.144531 -5.3125 4.8125 -5.3125 L 1.96875 -5.3125 L 1.96875 -0.171875 L 5.296875 -0.171875 C 5.679688 -0.171875 6.050781 -0.265625 6.40625 -0.453125 C 6.757812 -0.640625 7.039062 -0.890625 7.25 -1.203125 L 7.375 -1.390625 Z M 7.546875 -1.390625 "/></g></g><g style="fill:#ffffff;fill-opacity:1;"><g transform="translate(110.239231, 18.007946)"><path style="stroke:none" d="M 4.453125 -3.453125 C 4.453125 -2.816406 4.410156 -2.28125 4.328125 -1.84375 C 4.242188 -1.40625 4.109375 -1.046875 3.921875 -0.765625 C 3.742188 -0.484375 3.507812 -0.28125 3.21875 -0.15625 C 2.925781 -0.03125 2.570312 0.03125 2.15625 0.03125 C 1.769531 0.03125 1.445312 -0.0351562 1.1875 -0.171875 C 0.925781 -0.316406 0.765625 -0.515625 0.703125 -0.765625 C 0.691406 -0.773438 0.6875 -0.796875 0.6875 -0.828125 C 0.6875 -0.960938 0.785156 -1.03125 0.984375 -1.03125 C 1.148438 -1.03125 1.25 -0.941406 1.28125 -0.765625 C 1.332031 -0.566406 1.453125 -0.40625 1.640625 -0.28125 C 1.835938 -0.164062 2.066406 -0.109375 2.328125 -0.109375 C 2.578125 -0.109375 2.789062 -0.15625 2.96875 -0.25 C 3.144531 -0.351562 3.289062 -0.515625 3.40625 -0.734375 C 3.519531 -0.953125 3.601562 -1.234375 3.65625 -1.578125 C 3.71875 -1.929688 3.75 -2.359375 3.75 -2.859375 L 3.75 -8.0625 C 3.75 -8.25 3.722656 -8.398438 3.671875 -8.515625 C 3.617188 -8.628906 3.554688 -8.710938 3.484375 -8.765625 C 3.421875 -8.816406 3.351562 -8.847656 3.28125 -8.859375 C 3.207031 -8.878906 3.148438 -8.890625 3.109375 -8.890625 L 3.078125 -8.890625 L 3.078125 -9.09375 L 5.125 -9.09375 L 5.125 -8.890625 C 4.894531 -8.890625 4.722656 -8.820312 4.609375 -8.6875 C 4.503906 -8.5625 4.453125 -8.351562 4.453125 -8.0625 Z M 4.453125 -3.453125 "/></g></g><g style="fill:#ffffff;fill-opacity:1;"><g transform="translate(117.328355, 18.007946)"><path style="stroke:none" d="M 9.515625 -4.578125 C 9.515625 -3.960938 9.414062 -3.375 9.21875 -2.8125 C 9.019531 -2.25 8.734375 -1.753906 8.359375 -1.328125 C 7.984375 -0.910156 7.507812 -0.578125 6.9375 -0.328125 C 6.375 -0.0859375 5.722656 0.03125 4.984375 0.03125 C 4.234375 0.03125 3.570312 -0.0859375 3 -0.328125 C 2.4375 -0.578125 1.96875 -0.910156 1.59375 -1.328125 C 1.21875 -1.753906 0.929688 -2.25 0.734375 -2.8125 C 0.535156 -3.375 0.4375 -3.960938 0.4375 -4.578125 C 0.4375 -5.203125 0.535156 -5.789062 0.734375 -6.34375 C 0.929688 -6.90625 1.21875 -7.394531 1.59375 -7.8125 C 1.96875 -8.238281 2.4375 -8.570312 3 -8.8125 C 3.570312 -9.0625 4.234375 -9.1875 4.984375 -9.1875 C 5.722656 -9.1875 6.375 -9.0625 6.9375 -8.8125 C 7.507812 -8.570312 7.984375 -8.238281 8.359375 -7.8125 C 8.734375 -7.394531 9.019531 -6.90625 9.21875 -6.34375 C 9.414062 -5.789062 9.515625 -5.203125 9.515625 -4.578125 Z M 4.984375 -0.140625 C 5.609375 -0.140625 6.148438 -0.257812 6.609375 -0.5 C 7.078125 -0.738281 7.46875 -1.054688 7.78125 -1.453125 C 8.101562 -1.859375 8.34375 -2.332031 8.5 -2.875 C 8.65625 -3.414062 8.734375 -3.984375 8.734375 -4.578125 C 8.734375 -5.179688 8.65625 -5.75 8.5 -6.28125 C 8.34375 -6.820312 8.101562 -7.289062 7.78125 -7.6875 C 7.46875 -8.09375 7.078125 -8.414062 6.609375 -8.65625 C 6.148438 -8.894531 5.609375 -9.015625 4.984375 -9.015625 C 4.359375 -9.015625 3.8125 -8.894531 3.34375 -8.65625 C 2.875 -8.414062 2.476562 -8.09375 2.15625 -7.6875 C 1.84375 -7.289062 1.601562 -6.820312 1.4375 -6.28125 C 1.28125 -5.75 1.203125 -5.179688 1.203125 -4.578125 C 1.203125 -3.984375 1.28125 -3.414062 1.4375 -2.875 C 1.601562 -2.332031 1.84375 -1.859375 2.15625 -1.453125 C 2.476562 -1.054688 2.875 -0.738281 3.34375 -0.5 C 3.8125 -0.257812 4.359375 -0.140625 4.984375 -0.140625 Z M 4.984375 -0.140625 "/></g></g><g style="fill:#ffffff;fill-opacity:1;"><g transform="translate(37.19124, 28.082181)"><path style="stroke:none" d="M 1.265625 -3.890625 C 1.265625 -3.796875 1.285156 -3.679688 1.328125 -3.546875 C 1.367188 -3.410156 1.394531 -3.320312 1.40625 -3.28125 C 1.457031 -3.144531 1.503906 -3.003906 1.546875 -2.859375 L 2.375 -0.34375 L 3.171875 -2.796875 C 2.953125 -3.441406 2.796875 -3.816406 2.703125 -3.921875 C 2.671875 -3.960938 2.625 -4 2.5625 -4.03125 C 2.5 -4.070312 2.4375 -4.097656 2.375 -4.109375 C 2.320312 -4.117188 2.242188 -4.125 2.140625 -4.125 L 2.140625 -4.1875 L 3.75 -4.1875 L 3.734375 -4.125 C 3.578125 -4.125 3.46875 -4.109375 3.40625 -4.078125 C 3.351562 -4.046875 3.328125 -3.96875 3.328125 -3.84375 C 3.328125 -3.726562 3.414062 -3.398438 3.59375 -2.859375 L 4.4375 -0.34375 L 5.234375 -2.859375 C 5.390625 -3.367188 5.46875 -3.710938 5.46875 -3.890625 C 5.46875 -3.984375 5.429688 -4.046875 5.359375 -4.078125 C 5.285156 -4.109375 5.171875 -4.125 5.015625 -4.125 L 5 -4.1875 L 6.453125 -4.1875 L 6.4375 -4.125 C 6.238281 -4.125 6.09375 -4.097656 6 -4.046875 C 5.90625 -3.992188 5.8125 -3.882812 5.71875 -3.71875 C 5.632812 -3.550781 5.53125 -3.265625 5.40625 -2.859375 L 4.484375 0.03125 L 4.109375 0.03125 L 3.234375 -2.5625 L 2.4375 0.03125 L 2.0625 0.03125 L 1.09375 -2.859375 C 0.976562 -3.179688 0.894531 -3.414062 0.84375 -3.5625 C 0.789062 -3.707031 0.722656 -3.828125 0.640625 -3.921875 C 0.566406 -4.015625 0.492188 -4.070312 0.421875 -4.09375 C 0.347656 -4.113281 0.238281 -4.125 0.09375 -4.125 L 0.078125 -4.1875 L 1.6875 -4.1875 L 1.6875 -4.125 C 1.53125 -4.125 1.421875 -4.109375 1.359375 -4.078125 C 1.296875 -4.046875 1.265625 -3.984375 1.265625 -3.890625 Z M 1.265625 -3.890625 "/></g></g><g style="fill:#ffffff;fill-opacity:1;"><g transform="translate(44.514599, 28.082181)"><path style="stroke:none" d="M 3.3125 0 L 0.296875 0 L 0.3125 -0.078125 C 0.507812 -0.078125 0.65625 -0.113281 0.75 -0.1875 C 0.84375 -0.269531 0.890625 -0.660156 0.890625 -1.359375 L 0.890625 -2.84375 C 0.890625 -3.269531 0.875 -3.5625 0.84375 -3.71875 C 0.820312 -3.875 0.789062 -3.972656 0.75 -4.015625 C 0.65625 -4.085938 0.507812 -4.125 0.3125 -4.125 L 0.296875 -4.1875 L 3.09375 -4.1875 L 3.09375 -3.328125 L 3.015625 -3.34375 C 3.015625 -3.601562 2.875 -3.785156 2.59375 -3.890625 C 2.3125 -3.992188 1.882812 -4.046875 1.3125 -4.046875 L 1.3125 -2.171875 C 1.695312 -2.171875 1.972656 -2.1875 2.140625 -2.21875 C 2.304688 -2.257812 2.410156 -2.320312 2.453125 -2.40625 C 2.503906 -2.488281 2.53125 -2.625 2.53125 -2.8125 L 2.59375 -2.828125 L 2.59375 -1.375 L 2.53125 -1.390625 C 2.53125 -1.585938 2.503906 -1.722656 2.453125 -1.796875 C 2.410156 -1.878906 2.304688 -1.9375 2.140625 -1.96875 C 1.972656 -2.007812 1.695312 -2.03125 1.3125 -2.03125 L 1.3125 -1.265625 C 1.3125 -0.835938 1.328125 -0.550781 1.359375 -0.40625 C 1.390625 -0.269531 1.457031 -0.179688 1.5625 -0.140625 C 2.6875 -0.140625 3.25 -0.378906 3.25 -0.859375 L 3.3125 -0.875 Z M 3.3125 0 "/></g></g><g style="fill:#ffffff;fill-opacity:1;"><g transform="translate(48.993789, 28.082181)"><path style="stroke:none" d="M 3.421875 -1.171875 C 3.421875 -0.773438 3.265625 -0.476562 2.953125 -0.28125 C 2.648438 -0.09375 2.234375 0 1.703125 0 L 0.296875 0 L 0.3125 -0.078125 C 0.40625 -0.078125 0.476562 -0.078125 0.53125 -0.078125 C 0.59375 -0.0859375 0.648438 -0.109375 0.703125 -0.140625 C 0.753906 -0.179688 0.789062 -0.222656 0.8125 -0.265625 C 0.832031 -0.316406 0.851562 -0.394531 0.875 -0.5 C 0.882812 -0.644531 0.890625 -0.929688 0.890625 -1.359375 L 0.890625 -2.84375 C 0.890625 -3.4375 0.863281 -3.789062 0.8125 -3.90625 C 0.789062 -3.957031 0.753906 -4 0.703125 -4.03125 C 0.648438 -4.070312 0.59375 -4.097656 0.53125 -4.109375 C 0.476562 -4.117188 0.40625 -4.125 0.3125 -4.125 L 0.296875 -4.1875 L 1.640625 -4.1875 C 1.929688 -4.1875 2.226562 -4.132812 2.53125 -4.03125 C 2.707031 -3.976562 2.847656 -3.878906 2.953125 -3.734375 C 3.066406 -3.597656 3.125 -3.4375 3.125 -3.25 C 3.125 -2.976562 3.023438 -2.765625 2.828125 -2.609375 C 2.640625 -2.460938 2.410156 -2.359375 2.140625 -2.296875 C 2.453125 -2.265625 2.734375 -2.171875 2.984375 -2.015625 C 3.109375 -1.921875 3.210938 -1.800781 3.296875 -1.65625 C 3.378906 -1.519531 3.421875 -1.359375 3.421875 -1.171875 Z M 2.59375 -3.25 C 2.59375 -3.78125 2.164062 -4.046875 1.3125 -4.046875 L 1.3125 -2.34375 L 1.375 -2.34375 C 2.1875 -2.34375 2.59375 -2.644531 2.59375 -3.25 Z M 2.890625 -1.171875 C 2.890625 -1.867188 2.394531 -2.21875 1.40625 -2.21875 L 1.3125 -2.21875 L 1.3125 -1.265625 C 1.3125 -0.828125 1.320312 -0.539062 1.34375 -0.40625 C 1.375 -0.269531 1.441406 -0.179688 1.546875 -0.140625 C 1.742188 -0.140625 1.925781 -0.160156 2.09375 -0.203125 C 2.269531 -0.253906 2.40625 -0.3125 2.5 -0.375 C 2.601562 -0.445312 2.691406 -0.550781 2.765625 -0.6875 C 2.847656 -0.820312 2.890625 -0.984375 2.890625 -1.171875 Z M 2.890625 -1.171875 "/></g></g><g style="fill:#ffffff;fill-opacity:1;"><g transform="translate(53.484955, 28.082181)"><path style="stroke:none" d=""/></g></g><g style="fill:#ffffff;fill-opacity:1;"><g transform="translate(55.772632, 28.082181)"><path style="stroke:none" d="M 1.515625 -4.1875 C 2.191406 -4.1875 2.703125 -4.128906 3.046875 -4.015625 C 3.203125 -3.953125 3.367188 -3.867188 3.546875 -3.765625 C 3.722656 -3.660156 3.863281 -3.535156 3.96875 -3.390625 C 4.082031 -3.253906 4.175781 -3.070312 4.25 -2.84375 C 4.320312 -2.625 4.359375 -2.375 4.359375 -2.09375 C 4.359375 -1.820312 4.320312 -1.570312 4.25 -1.34375 C 4.175781 -1.125 4.082031 -0.941406 3.96875 -0.796875 C 3.863281 -0.660156 3.726562 -0.535156 3.5625 -0.421875 C 3.40625 -0.316406 3.253906 -0.238281 3.109375 -0.1875 C 2.960938 -0.132812 2.804688 -0.09375 2.640625 -0.0625 C 2.398438 -0.0195312 2.15625 0 1.90625 0 L 0.296875 0 L 0.3125 -0.078125 C 0.507812 -0.078125 0.65625 -0.113281 0.75 -0.1875 C 0.84375 -0.269531 0.890625 -0.660156 0.890625 -1.359375 L 0.890625 -2.84375 C 0.890625 -3.269531 0.875 -3.5625 0.84375 -3.71875 C 0.820312 -3.875 0.789062 -3.972656 0.75 -4.015625 C 0.65625 -4.085938 0.507812 -4.125 0.3125 -4.125 L 0.296875 -4.1875 Z M 1.53125 -0.140625 C 1.582031 -0.140625 1.679688 -0.140625 1.828125 -0.140625 C 1.984375 -0.140625 2.148438 -0.15625 2.328125 -0.1875 C 2.503906 -0.21875 2.6875 -0.273438 2.875 -0.359375 C 3.0625 -0.453125 3.222656 -0.566406 3.359375 -0.703125 C 3.503906 -0.847656 3.617188 -1.039062 3.703125 -1.28125 C 3.796875 -1.519531 3.84375 -1.789062 3.84375 -2.09375 C 3.84375 -2.394531 3.796875 -2.660156 3.703125 -2.890625 C 3.617188 -3.128906 3.503906 -3.320312 3.359375 -3.46875 C 3.222656 -3.613281 3.0625 -3.726562 2.875 -3.8125 C 2.539062 -3.96875 2.175781 -4.046875 1.78125 -4.046875 C 1.601562 -4.046875 1.445312 -4.035156 1.3125 -4.015625 L 1.3125 -1.28125 C 1.3125 -0.851562 1.320312 -0.566406 1.34375 -0.421875 C 1.375 -0.285156 1.4375 -0.191406 1.53125 -0.140625 Z M 1.53125 -0.140625 "/></g></g><g style="fill:#ffffff;fill-opacity:1;"><g transform="translate(61.138004, 28.082181)"><path style="stroke:none" d="M 3.3125 0 L 0.296875 0 L 0.3125 -0.078125 C 0.507812 -0.078125 0.65625 -0.113281 0.75 -0.1875 C 0.84375 -0.269531 0.890625 -0.660156 0.890625 -1.359375 L 0.890625 -2.84375 C 0.890625 -3.269531 0.875 -3.5625 0.84375 -3.71875 C 0.820312 -3.875 0.789062 -3.972656 0.75 -4.015625 C 0.65625 -4.085938 0.507812 -4.125 0.3125 -4.125 L 0.296875 -4.1875 L 3.09375 -4.1875 L 3.09375 -3.328125 L 3.015625 -3.34375 C 3.015625 -3.601562 2.875 -3.785156 2.59375 -3.890625 C 2.3125 -3.992188 1.882812 -4.046875 1.3125 -4.046875 L 1.3125 -2.171875 C 1.695312 -2.171875 1.972656 -2.1875 2.140625 -2.21875 C 2.304688 -2.257812 2.410156 -2.320312 2.453125 -2.40625 C 2.503906 -2.488281 2.53125 -2.625 2.53125 -2.8125 L 2.59375 -2.828125 L 2.59375 -1.375 L 2.53125 -1.390625 C 2.53125 -1.585938 2.503906 -1.722656 2.453125 -1.796875 C 2.410156 -1.878906 2.304688 -1.9375 2.140625 -1.96875 C 1.972656 -2.007812 1.695312 -2.03125 1.3125 -2.03125 L 1.3125 -1.265625 C 1.3125 -0.835938 1.328125 -0.550781 1.359375 -0.40625 C 1.390625 -0.269531 1.457031 -0.179688 1.5625 -0.140625 C 2.6875 -0.140625 3.25 -0.378906 3.25 -0.859375 L 3.3125 -0.875 Z M 3.3125 0 "/></g></g><g style="fill:#ffffff;fill-opacity:1;"><g transform="translate(65.617195, 28.082181)"><path style="stroke:none" d="M 1.21875 -3.921875 C 1.21875 -3.859375 1.222656 -3.804688 1.234375 -3.765625 C 1.242188 -3.722656 1.25 -3.691406 1.25 -3.671875 C 1.257812 -3.648438 1.269531 -3.617188 1.28125 -3.578125 C 1.289062 -3.535156 1.300781 -3.5 1.3125 -3.46875 C 1.320312 -3.4375 1.335938 -3.390625 1.359375 -3.328125 C 1.378906 -3.273438 1.394531 -3.226562 1.40625 -3.1875 C 1.425781 -3.15625 1.445312 -3.101562 1.46875 -3.03125 C 1.5 -2.96875 1.519531 -2.910156 1.53125 -2.859375 L 2.46875 -0.328125 L 3.359375 -2.859375 C 3.535156 -3.367188 3.625 -3.6875 3.625 -3.8125 C 3.625 -3.945312 3.585938 -4.03125 3.515625 -4.0625 C 3.453125 -4.101562 3.335938 -4.125 3.171875 -4.125 L 3.15625 -4.1875 L 4.625 -4.1875 L 4.609375 -4.125 C 4.453125 -4.125 4.332031 -4.113281 4.25 -4.09375 C 4.175781 -4.070312 4.097656 -4.015625 4.015625 -3.921875 C 3.929688 -3.835938 3.851562 -3.710938 3.78125 -3.546875 C 3.707031 -3.390625 3.617188 -3.160156 3.515625 -2.859375 L 2.515625 0.03125 L 2.140625 0.03125 L 1.078125 -2.859375 C 0.847656 -3.460938 0.691406 -3.816406 0.609375 -3.921875 C 0.566406 -3.960938 0.515625 -4 0.453125 -4.03125 C 0.390625 -4.070312 0.328125 -4.097656 0.265625 -4.109375 C 0.210938 -4.117188 0.140625 -4.125 0.046875 -4.125 L 0.03125 -4.1875 L 1.640625 -4.1875 L 1.640625 -4.125 C 1.484375 -4.125 1.375 -4.109375 1.3125 -4.078125 C 1.25 -4.046875 1.21875 -3.992188 1.21875 -3.921875 Z M 1.21875 -3.921875 "/></g></g><g style="fill:#ffffff;fill-opacity:1;"><g transform="translate(71.060407, 28.082181)"><path style="stroke:none" d="M 3.3125 0 L 0.296875 0 L 0.3125 -0.078125 C 0.507812 -0.078125 0.65625 -0.113281 0.75 -0.1875 C 0.84375 -0.269531 0.890625 -0.660156 0.890625 -1.359375 L 0.890625 -2.84375 C 0.890625 -3.269531 0.875 -3.5625 0.84375 -3.71875 C 0.820312 -3.875 0.789062 -3.972656 0.75 -4.015625 C 0.65625 -4.085938 0.507812 -4.125 0.3125 -4.125 L 0.296875 -4.1875 L 3.09375 -4.1875 L 3.09375 -3.328125 L 3.015625 -3.34375 C 3.015625 -3.601562 2.875 -3.785156 2.59375 -3.890625 C 2.3125 -3.992188 1.882812 -4.046875 1.3125 -4.046875 L 1.3125 -2.171875 C 1.695312 -2.171875 1.972656 -2.1875 2.140625 -2.21875 C 2.304688 -2.257812 2.410156 -2.320312 2.453125 -2.40625 C 2.503906 -2.488281 2.53125 -2.625 2.53125 -2.8125 L 2.59375 -2.828125 L 2.59375 -1.375 L 2.53125 -1.390625 C 2.53125 -1.585938 2.503906 -1.722656 2.453125 -1.796875 C 2.410156 -1.878906 2.304688 -1.9375 2.140625 -1.96875 C 1.972656 -2.007812 1.695312 -2.03125 1.3125 -2.03125 L 1.3125 -1.265625 C 1.3125 -0.835938 1.328125 -0.550781 1.359375 -0.40625 C 1.390625 -0.269531 1.457031 -0.179688 1.5625 -0.140625 C 2.6875 -0.140625 3.25 -0.378906 3.25 -0.859375 L 3.3125 -0.875 Z M 3.3125 0 "/></g></g><g style="fill:#ffffff;fill-opacity:1;"><g transform="translate(75.539597, 28.082181)"><path style="stroke:none" d="M 3.171875 0 L 0.3125 0 L 0.3125 -0.078125 C 0.40625 -0.078125 0.484375 -0.078125 0.546875 -0.078125 C 0.609375 -0.0859375 0.660156 -0.109375 0.703125 -0.140625 C 0.753906 -0.179688 0.789062 -0.222656 0.8125 -0.265625 C 0.832031 -0.316406 0.851562 -0.394531 0.875 -0.5 C 0.882812 -0.644531 0.890625 -0.929688 0.890625 -1.359375 L 0.890625 -2.84375 C 0.890625 -3.4375 0.863281 -3.796875 0.8125 -3.921875 C 0.757812 -4.035156 0.671875 -4.097656 0.546875 -4.109375 C 0.484375 -4.117188 0.40625 -4.125 0.3125 -4.125 L 0.3125 -4.1875 L 1.921875 -4.1875 L 1.90625 -4.125 C 1.707031 -4.125 1.5625 -4.085938 1.46875 -4.015625 C 1.363281 -3.929688 1.3125 -3.539062 1.3125 -2.84375 L 1.3125 -1.265625 C 1.3125 -0.828125 1.328125 -0.535156 1.359375 -0.390625 C 1.390625 -0.253906 1.457031 -0.164062 1.5625 -0.125 C 2.582031 -0.125 3.09375 -0.367188 3.09375 -0.859375 L 3.171875 -0.875 Z M 3.171875 0 "/></g></g><g style="fill:#ffffff;fill-opacity:1;"><g transform="translate(79.647548, 28.082181)"><path style="stroke:none" d="M 2.28125 -4.25 C 2.925781 -4.25 3.441406 -4.050781 3.828125 -3.65625 C 4.210938 -3.257812 4.40625 -2.75 4.40625 -2.125 C 4.40625 -1.5 4.21875 -0.976562 3.84375 -0.5625 C 3.476562 -0.144531 2.972656 0.0625 2.328125 0.0625 C 1.691406 0.0625 1.175781 -0.144531 0.78125 -0.5625 C 0.394531 -0.988281 0.203125 -1.507812 0.203125 -2.125 C 0.203125 -2.75 0.390625 -3.257812 0.765625 -3.65625 C 1.140625 -4.050781 1.644531 -4.25 2.28125 -4.25 Z M 2.328125 -0.078125 C 2.835938 -0.078125 3.222656 -0.257812 3.484375 -0.625 C 3.753906 -1 3.890625 -1.484375 3.890625 -2.078125 C 3.890625 -2.679688 3.75 -3.171875 3.46875 -3.546875 C 3.1875 -3.921875 2.789062 -4.109375 2.28125 -4.109375 C 1.78125 -4.109375 1.394531 -3.921875 1.125 -3.546875 C 0.863281 -3.179688 0.734375 -2.695312 0.734375 -2.09375 C 0.734375 -1.488281 0.867188 -1 1.140625 -0.625 C 1.421875 -0.257812 1.816406 -0.078125 2.328125 -0.078125 Z M 2.328125 -0.078125 "/></g></g><g style="fill:#ffffff;fill-opacity:1;"><g transform="translate(85.060824, 28.082181)"><path style="stroke:none" d="M 1.859375 -4.1875 C 2.921875 -4.1875 3.453125 -3.785156 3.453125 -2.984375 C 3.453125 -2.628906 3.328125 -2.335938 3.078125 -2.109375 C 2.828125 -1.878906 2.53125 -1.765625 2.1875 -1.765625 C 1.84375 -1.765625 1.550781 -1.820312 1.3125 -1.9375 L 1.3125 -1.359375 C 1.3125 -0.929688 1.320312 -0.640625 1.34375 -0.484375 C 1.375 -0.328125 1.414062 -0.226562 1.46875 -0.1875 C 1.5625 -0.113281 1.707031 -0.078125 1.90625 -0.078125 L 1.921875 0 L 0.296875 0 L 0.3125 -0.078125 C 0.507812 -0.078125 0.65625 -0.113281 0.75 -0.1875 C 0.84375 -0.269531 0.890625 -0.660156 0.890625 -1.359375 L 0.890625 -2.84375 C 0.890625 -3.269531 0.875 -3.554688 0.84375 -3.703125 C 0.820312 -3.859375 0.789062 -3.957031 0.75 -4 C 0.65625 -4.082031 0.507812 -4.125 0.3125 -4.125 L 0.296875 -4.1875 Z M 1.3125 -4.046875 L 1.3125 -2.078125 C 1.519531 -1.972656 1.765625 -1.921875 2.046875 -1.921875 C 2.328125 -1.921875 2.550781 -2.007812 2.71875 -2.1875 C 2.894531 -2.363281 2.984375 -2.628906 2.984375 -2.984375 C 2.984375 -3.421875 2.84375 -3.710938 2.5625 -3.859375 C 2.320312 -3.984375 2.035156 -4.046875 1.703125 -4.046875 Z M 1.3125 -4.046875 "/></g></g><g style="fill:#ffffff;fill-opacity:1;"><g transform="translate(89.426247, 28.082181)"><path style="stroke:none" d="M 3.3125 0 L 0.296875 0 L 0.3125 -0.078125 C 0.507812 -0.078125 0.65625 -0.113281 0.75 -0.1875 C 0.84375 -0.269531 0.890625 -0.660156 0.890625 -1.359375 L 0.890625 -2.84375 C 0.890625 -3.269531 0.875 -3.5625 0.84375 -3.71875 C 0.820312 -3.875 0.789062 -3.972656 0.75 -4.015625 C 0.65625 -4.085938 0.507812 -4.125 0.3125 -4.125 L 0.296875 -4.1875 L 3.09375 -4.1875 L 3.09375 -3.328125 L 3.015625 -3.34375 C 3.015625 -3.601562 2.875 -3.785156 2.59375 -3.890625 C 2.3125 -3.992188 1.882812 -4.046875 1.3125 -4.046875 L 1.3125 -2.171875 C 1.695312 -2.171875 1.972656 -2.1875 2.140625 -2.21875 C 2.304688 -2.257812 2.410156 -2.320312 2.453125 -2.40625 C 2.503906 -2.488281 2.53125 -2.625 2.53125 -2.8125 L 2.59375 -2.828125 L 2.59375 -1.375 L 2.53125 -1.390625 C 2.53125 -1.585938 2.503906 -1.722656 2.453125 -1.796875 C 2.410156 -1.878906 2.304688 -1.9375 2.140625 -1.96875 C 1.972656 -2.007812 1.695312 -2.03125 1.3125 -2.03125 L 1.3125 -1.265625 C 1.3125 -0.835938 1.328125 -0.550781 1.359375 -0.40625 C 1.390625 -0.269531 1.457031 -0.179688 1.5625 -0.140625 C 2.6875 -0.140625 3.25 -0.378906 3.25 -0.859375 L 3.3125 -0.875 Z M 3.3125 0 "/></g></g><g style="fill:#ffffff;fill-opacity:1;"><g transform="translate(93.905437, 28.082181)"><path style="stroke:none" d="M 3.359375 0 C 3.253906 0 3.15625 -0.0507812 3.0625 -0.15625 C 2.96875 -0.257812 2.878906 -0.382812 2.796875 -0.53125 C 2.722656 -0.6875 2.632812 -0.851562 2.53125 -1.03125 C 2.425781 -1.207031 2.320312 -1.375 2.21875 -1.53125 C 2.113281 -1.6875 1.976562 -1.816406 1.8125 -1.921875 C 1.65625 -2.023438 1.488281 -2.082031 1.3125 -2.09375 L 1.3125 -1.359375 C 1.3125 -0.921875 1.320312 -0.625 1.34375 -0.46875 C 1.375 -0.320312 1.410156 -0.226562 1.453125 -0.1875 C 1.554688 -0.113281 1.707031 -0.078125 1.90625 -0.078125 L 1.921875 0 L 0.3125 0 L 0.328125 -0.078125 C 0.515625 -0.078125 0.65625 -0.109375 0.75 -0.171875 C 0.832031 -0.234375 0.878906 -0.429688 0.890625 -0.765625 C 0.890625 -0.898438 0.890625 -1.097656 0.890625 -1.359375 L 0.890625 -2.859375 C 0.890625 -3.304688 0.878906 -3.601562 0.859375 -3.75 C 0.835938 -3.894531 0.800781 -3.984375 0.75 -4.015625 C 0.65625 -4.085938 0.515625 -4.125 0.328125 -4.125 L 0.3125 -4.1875 L 1.703125 -4.1875 C 2.703125 -4.1875 3.203125 -3.847656 3.203125 -3.171875 C 3.203125 -2.878906 3.097656 -2.632812 2.890625 -2.4375 C 2.691406 -2.238281 2.445312 -2.125 2.15625 -2.09375 C 2.445312 -1.925781 2.71875 -1.613281 2.96875 -1.15625 C 3.0625 -0.96875 3.160156 -0.796875 3.265625 -0.640625 C 3.503906 -0.265625 3.804688 -0.078125 4.171875 -0.078125 L 4.1875 0 Z M 1.3125 -4.046875 L 1.3125 -2.21875 L 1.6875 -2.21875 C 1.988281 -2.21875 2.238281 -2.296875 2.4375 -2.453125 C 2.632812 -2.609375 2.734375 -2.835938 2.734375 -3.140625 C 2.734375 -3.742188 2.390625 -4.046875 1.703125 -4.046875 Z M 1.3125 -4.046875 "/></g></g></g></svg>